<svg version="1.1" xmlns="http://www.w3.org/2000/svg" viewBox="-266.2 -1054.7 3948.9 2947.6"><desc>Created with Snap</desc><defs></defs><g><rect x="-266.2" y="-1054.7" width="3948.9" height="2947.6" fill="#efd9ce" style=""></rect><g><g transform="matrix(0.5,0,0,-0.5,0,0)"><path d="M768 1409Q741 1409 705 1398Q669 1387 631 1356Q594 1326 558 1271Q522 1216 493 1128Q465 1041 447 916Q430 791 430 621Q430 459 447 340Q465 221 494 137Q524 54 562 1Q600 -52 642 -82Q684 -111 726 -122Q768 -133 805 -133Q844 -133 884 -123Q924 -113 962 -94Q1001 -75 1036 -48Q1072 -21 1102 14L1147 -31Q1117 -68 1075 -107Q1033 -145 977 -177Q922 -208 853 -228Q784 -248 700 -248Q569 -248 456 -198Q344 -148 260 -43Q177 63 129 228Q82 393 82 623Q82 839 132 1002Q182 1165 268 1274Q354 1384 470 1439Q586 1495 717 1495Q804 1495 875 1478Q947 1462 999 1430Q1051 1399 1079 1352Q1108 1306 1108 1247Q1108 1220 1099 1190Q1090 1161 1071 1136Q1053 1112 1026 1096Q999 1081 963 1081Q931 1081 913 1095Q896 1109 887 1132Q879 1155 876 1184Q874 1214 873 1245Q872 1276 868 1305Q865 1335 854 1358Q844 1381 824 1395Q804 1409 768 1409ZM1691 274L1691 518Q1691 543 1675 556Q1659 569 1634 569Q1599 569 1567 553Q1536 537 1512 506Q1488 475 1474 429Q1460 384 1460 324Q1460 266 1468 228Q1477 190 1491 167Q1506 145 1525 136Q1544 127 1565 127Q1591 127 1614 140Q1637 154 1654 175Q1671 196 1681 222Q1691 248 1691 274ZM1532 956Q1498 956 1469 948Q1440 940 1419 928Q1398 916 1386 901Q1374 887 1374 874Q1374 859 1389 852Q1405 846 1424 837Q1443 829 1458 813Q1474 798 1474 766Q1474 745 1465 727Q1457 710 1442 696Q1428 683 1408 675Q1389 668 1368 668Q1312 668 1277 706Q1243 744 1243 807Q1243 868 1275 911Q1307 955 1358 983Q1410 1011 1475 1024Q1540 1038 1605 1038Q1683 1038 1754 1021Q1825 1004 1879 967Q1934 930 1966 873Q1999 816 1999 735L1999 170Q1999 161 2000 150Q2001 139 2005 130Q2009 121 2017 115Q2025 109 2040 109Q2058 109 2073 122Q2089 136 2101 150L2126 129Q2111 108 2090 83Q2069 58 2039 36Q2009 14 1969 -1Q1929 -16 1878 -16Q1815 -16 1766 21Q1717 59 1702 137Q1670 94 1635 65Q1601 36 1565 18Q1529 0 1492 -8Q1456 -16 1419 -16Q1371 -16 1326 -1Q1281 14 1245 46Q1210 79 1188 131Q1167 183 1167 258Q1167 349 1203 407Q1239 465 1297 504Q1356 544 1430 572Q1505 600 1583 631Q1641 654 1667 699Q1694 745 1694 793Q1694 867 1650 911Q1607 956 1532 956ZM3115 758L3115 88Q3115 75 3111 57Q3107 39 3091 23Q3076 7 3045 -5Q3014 -16 2961 -16Q2908 -16 2877 -4Q2847 9 2831 26Q2816 43 2812 61Q2808 79 2808 90L2808 797Q2808 811 2804 825Q2800 840 2792 852Q2784 864 2772 871Q2760 879 2744 879Q2717 879 2691 863Q2665 848 2642 828Q2620 808 2603 788Q2587 768 2580 758L2580 88Q2580 75 2576 57Q2572 39 2556 23Q2541 7 2510 -5Q2480 -16 2427 -16Q2374 -16 2343 -4Q2313 9 2297 26Q2281 43 2277 61Q2273 79 2273 90L2273 862Q2273 891 2259 912Q2246 934 2214 934Q2197 934 2185 928Q2173 922 2159 911L2138 936Q2161 955 2189 973Q2218 992 2251 1006Q2284 1020 2322 1029Q2360 1038 2402 1038Q2467 1038 2503 1016Q2539 995 2556 965Q2573 935 2576 902Q2580 870 2580 848Q2627 901 2681 943Q2703 961 2729 978Q2756 995 2784 1008Q2812 1022 2842 1030Q2872 1038 2902 1038Q2960 1038 3001 1017Q3042 996 3067 966Q3092 937 3103 904Q3115 872 3115 848Q3163 901 3216 943Q3238 961 3264 978Q3290 995 3318 1008Q3347 1022 3376 1030Q3406 1038 3436 1038Q3494 1038 3535 1016Q3576 995 3601 960Q3626 925 3637 881Q3649 837 3649 793L3649 174Q3649 165 3650 154Q3651 144 3655 134Q3659 125 3667 119Q3676 113 3690 113Q3709 113 3724 126Q3739 140 3752 154L3776 133Q3762 112 3739 86Q3716 61 3684 38Q3653 15 3611 -1Q3570 -16 3518 -16Q3474 -16 3441 -5Q3409 7 3386 26Q3364 46 3353 72Q3342 99 3342 129L3342 797Q3342 811 3338 825Q3334 840 3326 852Q3319 864 3307 871Q3295 879 3279 879Q3252 879 3225 863Q3199 848 3176 828Q3154 808 3138 788Q3122 768 3115 758ZM3924 -406L3924 862Q3924 891 3910 912Q3897 934 3865 934Q3848 934 3836 928Q3824 922 3810 911L3789 936Q3812 955 3840 973Q3869 992 3902 1006Q3935 1020 3973 1029Q4011 1038 4053 1038Q4098 1038 4130 1024Q4162 1010 4183 990Q4205 971 4216 949Q4227 928 4229 913Q4249 941 4276 964Q4304 987 4336 1003Q4369 1020 4405 1029Q4442 1038 4481 1038Q4561 1038 4626 1005Q4691 972 4737 907Q4784 842 4809 746Q4834 650 4834 524Q4834 378 4803 275Q4773 173 4723 108Q4674 43 4610 13Q4547 -16 4481 -16Q4426 -16 4384 -5Q4343 6 4313 22Q4283 38 4263 54Q4243 71 4231 82L4231 -406Q4231 -419 4227 -437Q4223 -455 4207 -472Q4192 -488 4161 -500Q4131 -512 4078 -512Q4025 -512 3994 -500Q3964 -487 3948 -470Q3932 -452 3928 -435Q3924 -417 3924 -406ZM4231 782L4231 225Q4231 217 4238 197Q4245 177 4260 156Q4275 135 4298 118Q4322 102 4356 102Q4400 102 4431 135Q4462 169 4482 226Q4502 284 4511 360Q4520 437 4520 524Q4520 631 4508 705Q4497 779 4475 824Q4453 870 4422 890Q4392 911 4354 911Q4332 911 4310 898Q4288 886 4270 867Q4253 849 4242 826Q4231 803 4231 782ZM5898 893L5898 174Q5898 165 5899 154Q5900 144 5904 134Q5908 125 5916 119Q5924 113 5939 113Q5958 113 5973 126Q5988 140 6001 154L6025 133Q6010 112 5987 86Q5965 61 5933 38Q5901 15 5860 -1Q5819 -16 5767 -16Q5723 -16 5690 -5Q5658 7 5635 26Q5613 46 5602 72Q5591 99 5591 129L5591 174Q5541 120 5486 79Q5462 61 5435 44Q5408 27 5379 13Q5350 0 5319 -8Q5288 -16 5257 -16Q5197 -16 5154 5Q5112 27 5086 62Q5060 97 5048 141Q5036 185 5036 229L5036 848Q5036 857 5035 867Q5034 878 5030 887Q5026 897 5018 903Q5010 909 4995 909Q4977 909 4961 895Q4946 882 4934 868L4909 889Q4924 910 4946 935Q4969 961 5001 984Q5033 1007 5074 1022Q5116 1038 5167 1038Q5211 1038 5244 1026Q5277 1015 5299 995Q5321 976 5332 949Q5343 923 5343 893L5343 225Q5343 211 5347 196Q5352 182 5360 170Q5369 158 5382 150Q5395 143 5413 143Q5442 143 5471 158Q5500 173 5524 193Q5548 214 5565 234Q5583 254 5591 264L5591 848Q5591 857 5590 867Q5589 878 5585 887Q5581 897 5573 903Q5565 909 5550 909Q5532 909 5516 895Q5501 882 5489 868L5464 889Q5479 910 5501 935Q5524 961 5556 984Q5588 1007 5629 1022Q5671 1038 5722 1038Q5766 1038 5799 1026Q5832 1015 5854 995Q5876 976 5887 949Q5898 923 5898 893ZM6482 958Q6459 958 6438 952Q6418 946 6402 932Q6386 919 6377 898Q6368 878 6368 850Q6368 811 6396 772Q6425 734 6467 692Q6510 651 6559 606Q6609 562 6651 512Q6694 463 6722 407Q6751 351 6751 287Q6751 215 6726 159Q6702 103 6656 64Q6611 25 6546 4Q6482 -16 6403 -16Q6334 -16 6278 3Q6222 23 6178 51Q6135 80 6104 112Q6073 144 6056 170L6091 195Q6104 180 6124 162Q6144 145 6168 130Q6193 115 6221 105Q6249 96 6278 96Q6350 96 6396 130Q6442 165 6442 233Q6442 271 6417 311Q6392 352 6354 395Q6316 438 6272 484Q6228 530 6190 579Q6152 628 6127 680Q6102 732 6102 788Q6102 851 6127 898Q6153 945 6195 976Q6238 1007 6292 1022Q6347 1038 6405 1038Q6472 1038 6527 1026Q6582 1014 6621 989Q6661 965 6682 928Q6704 891 6704 842Q6704 804 6679 776Q6654 748 6609 748Q6566 748 6543 766Q6521 785 6521 817Q6521 838 6531 850Q6542 862 6555 869Q6568 877 6578 882Q6589 888 6589 897Q6589 925 6559 941Q6529 958 6482 958Z" fill="#292929" style=""></path></g></g><g transform="matrix(1,0,0,1,41,1341.2)"><g transform="matrix(0.5,0,0,-0.5,0,0)"><path d="M862 1495Q1134 1495 1277 1398Q1421 1302 1421 1122Q1421 1034 1400 971Q1380 909 1343 865Q1307 822 1256 793Q1206 765 1147 745Q1188 734 1229 686Q1271 638 1314 567Q1357 497 1401 411Q1445 325 1489 237Q1534 149 1579 66Q1625 -17 1670 -82Q1716 -147 1762 -186Q1809 -225 1855 -225Q1875 -225 1894 -217Q1914 -209 1925 -201L1946 -240Q1926 -251 1897 -265Q1868 -278 1829 -290Q1790 -302 1741 -311Q1693 -319 1634 -319Q1537 -319 1459 -266Q1381 -212 1325 -115Q1268 -15 1213 95Q1158 205 1103 315Q1049 425 994 530Q940 635 885 727L893 768Q952 753 995 775Q1039 797 1067 846Q1095 896 1108 968Q1122 1040 1122 1124Q1122 1184 1109 1236Q1096 1289 1072 1328Q1049 1368 1016 1390Q983 1413 942 1413Q910 1413 889 1403Q869 1394 857 1379Q845 1365 840 1348Q836 1332 836 1317L836 131Q836 54 795 19Q755 -16 672 -16Q588 -16 548 19Q508 54 508 131L508 1327Q508 1382 432 1382Q377 1382 320 1365Q264 1349 218 1320Q173 1292 144 1252Q115 1213 115 1167Q115 1135 123 1116Q132 1097 143 1087Q154 1078 165 1075Q177 1073 182 1073Q207 1073 223 1081Q239 1090 252 1099Q265 1109 276 1117Q288 1126 303 1126Q315 1126 328 1120Q342 1115 353 1103Q365 1091 373 1071Q381 1052 381 1024Q381 984 365 955Q350 926 325 906Q301 887 269 877Q238 868 207 868Q159 868 120 884Q82 901 55 930Q28 959 14 998Q0 1037 0 1081Q0 1164 31 1227Q62 1291 118 1337Q175 1383 254 1413Q333 1444 429 1462Q525 1480 634 1487Q744 1495 862 1495ZM1679 512Q1679 643 1717 741Q1755 840 1818 906Q1882 972 1966 1005Q2050 1038 2142 1038Q2234 1038 2318 1007Q2402 977 2465 914Q2529 851 2567 754Q2605 658 2605 526Q2605 395 2567 294Q2529 193 2465 124Q2402 55 2318 19Q2234 -16 2142 -16Q2050 -16 1966 17Q1882 51 1818 117Q1755 183 1717 282Q1679 381 1679 512ZM2294 522Q2294 602 2288 676Q2283 751 2267 809Q2251 867 2221 901Q2191 936 2142 936Q2093 936 2063 899Q2033 863 2017 803Q2001 744 1996 668Q1991 592 1991 512Q1991 432 1996 355Q2001 279 2017 219Q2033 159 2063 122Q2093 86 2142 86Q2191 86 2221 124Q2251 162 2267 224Q2283 286 2288 364Q2294 442 2294 522ZM3101 1391L3101 88Q3101 75 3096 57Q3092 39 3075 23Q3059 7 3027 -5Q2996 -16 2943 -16Q2890 -16 2860 -4Q2830 9 2815 26Q2801 43 2797 61Q2794 79 2794 90L2794 1380Q2794 1409 2780 1430Q2767 1452 2735 1452Q2718 1452 2705 1446Q2693 1441 2679 1430L2659 1454Q2682 1473 2710 1491Q2738 1510 2771 1524Q2805 1538 2843 1547Q2881 1556 2923 1556Q2988 1556 3024 1538Q3060 1521 3077 1495Q3094 1470 3097 1441Q3101 1413 3101 1391ZM3662 1391L3662 88Q3662 75 3657 57Q3653 39 3636 23Q3620 7 3588 -5Q3557 -16 3504 -16Q3451 -16 3421 -4Q3391 9 3376 26Q3362 43 3358 61Q3355 79 3355 90L3355 1380Q3355 1409 3341 1430Q3328 1452 3296 1452Q3279 1452 3266 1446Q3254 1441 3240 1430L3220 1454Q3243 1473 3271 1491Q3299 1510 3332 1524Q3366 1538 3404 1547Q3442 1556 3484 1556Q3549 1556 3585 1538Q3621 1521 3638 1495Q3655 1470 3658 1441Q3662 1413 3662 1391ZM4233 872L4233 90Q4233 77 4228 58Q4224 40 4207 23Q4191 7 4160 -5Q4129 -16 4076 -16Q4023 -16 3993 -4Q3963 9 3948 26Q3933 43 3929 61Q3926 79 3926 90L3926 862Q3926 891 3912 912Q3899 934 3867 934Q3850 934 3838 928Q3826 922 3812 911L3791 936Q3814 955 3842 973Q3871 992 3904 1006Q3937 1020 3975 1029Q4013 1038 4055 1038Q4120 1038 4156 1020Q4192 1003 4209 977Q4226 952 4229 923Q4233 894 4233 872ZM3895 1266Q3895 1294 3907 1319Q3920 1345 3942 1364Q3965 1383 3994 1394Q4024 1405 4059 1405Q4093 1405 4122 1394Q4152 1383 4174 1364Q4196 1345 4208 1319Q4221 1294 4221 1266Q4221 1237 4208 1212Q4196 1187 4174 1168Q4152 1150 4122 1139Q4093 1128 4059 1128Q4024 1128 3994 1139Q3965 1150 3942 1168Q3920 1187 3907 1212Q3895 1237 3895 1266ZM5073 498Q5073 624 5061 699Q5050 775 5031 814Q5012 854 4989 866Q4966 879 4942 879Q4913 879 4890 863Q4868 848 4851 828Q4835 808 4823 788Q4812 768 4804 758L4804 90Q4804 77 4800 58Q4796 40 4780 23Q4765 7 4734 -5Q4704 -16 4651 -16Q4598 -16 4567 -4Q4537 9 4521 26Q4505 43 4501 61Q4497 79 4497 90L4497 862Q4497 891 4483 912Q4470 934 4438 934Q4421 934 4409 928Q4397 922 4383 911L4362 936Q4385 955 4413 973Q4442 992 4475 1006Q4508 1020 4546 1029Q4584 1038 4626 1038Q4691 1038 4727 1016Q4763 995 4780 965Q4797 935 4800 902Q4804 870 4804 848Q4841 901 4888 943Q4907 961 4930 978Q4954 995 4980 1008Q5007 1022 5036 1030Q5066 1038 5097 1038Q5165 1038 5217 1012Q5270 986 5306 925Q5342 864 5361 763Q5380 663 5380 514Q5380 369 5354 262Q5328 155 5286 80Q5244 5 5191 -43Q5138 -90 5084 -117Q5030 -144 4980 -155Q4931 -165 4895 -166L4884 -125Q4914 -118 4939 -103Q4965 -88 4986 -59Q5007 -30 5023 14Q5039 59 5050 126Q5062 193 5067 284Q5073 376 5073 498ZM5544 629Q5544 731 5579 807Q5615 884 5675 935Q5735 987 5814 1012Q5893 1038 5980 1038Q6067 1038 6145 1015Q6223 992 6283 944Q6302 973 6314 1005Q6326 1037 6326 1069Q6326 1111 6303 1136Q6281 1161 6246 1161L6246 1190Q6268 1197 6285 1202Q6302 1208 6316 1211Q6330 1214 6344 1215Q6358 1217 6375 1217Q6422 1217 6447 1188Q6472 1159 6472 1108Q6472 1078 6458 1048Q6444 1019 6423 992Q6402 965 6376 941Q6351 917 6328 899Q6370 851 6393 787Q6416 723 6416 641Q6416 538 6380 459Q6345 380 6285 326Q6225 272 6146 244Q6067 217 5980 217Q5929 217 5880 226Q5831 235 5788 252Q5772 240 5760 222Q5749 204 5749 182Q5749 145 5781 127Q5813 109 5866 101Q5919 93 5986 91Q6053 89 6123 84Q6194 80 6261 67Q6328 55 6381 26Q6434 -2 6466 -51Q6498 -100 6498 -178Q6498 -235 6474 -281Q6450 -326 6409 -361Q6369 -395 6315 -420Q6262 -444 6202 -460Q6143 -475 6081 -482Q6020 -489 5964 -489Q5862 -489 5780 -479Q5699 -468 5642 -446Q5585 -424 5554 -389Q5523 -354 5523 -305Q5523 -270 5539 -241Q5555 -211 5581 -187Q5608 -162 5641 -143Q5674 -123 5708 -106Q5658 -85 5624 -43Q5591 0 5591 70Q5591 107 5604 138Q5617 170 5637 196Q5658 223 5682 244Q5707 266 5730 281Q5689 305 5654 339Q5620 374 5595 417Q5571 461 5557 514Q5544 567 5544 629ZM6115 637Q6115 695 6109 750Q6103 805 6088 848Q6073 891 6047 917Q6021 944 5980 944Q5939 944 5913 916Q5887 889 5872 844Q5857 800 5851 743Q5845 687 5845 629Q5845 570 5851 513Q5857 456 5872 411Q5887 366 5913 338Q5939 311 5980 311Q6021 311 6047 340Q6073 369 6088 415Q6103 462 6109 520Q6115 578 6115 637ZM6267 -258Q6267 -226 6242 -206Q6217 -185 6176 -173Q6136 -160 6084 -154Q6033 -147 5980 -144Q5927 -140 5877 -137Q5827 -134 5790 -129Q5769 -144 5749 -162Q5730 -179 5715 -199Q5701 -218 5692 -240Q5683 -261 5683 -283Q5683 -321 5705 -347Q5727 -372 5764 -387Q5802 -402 5851 -408Q5901 -414 5956 -414Q6029 -414 6087 -402Q6145 -389 6185 -368Q6225 -346 6246 -318Q6267 -290 6267 -258Z" fill="#292929" style=""></path></g></g></g></svg>