<?xml version="1.0" encoding="UTF-8" standalone="no"?>
<!-- Created with Inkscape (http://www.inkscape.org/) -->

<svg
   xmlns:dc="http://purl.org/dc/elements/1.1/"
   xmlns:cc="http://creativecommons.org/ns#"
   xmlns:rdf="http://www.w3.org/1999/02/22-rdf-syntax-ns#"
   xmlns:svg="http://www.w3.org/2000/svg"
   xmlns="http://www.w3.org/2000/svg"
   xmlns:sodipodi="http://sodipodi.sourceforge.net/DTD/sodipodi-0.dtd"
   xmlns:inkscape="http://www.inkscape.org/namespaces/inkscape"
   width="600"
   height="600"
   id="svg4647"
   version="1.1"
   inkscape:version="0.48.4 r9939"
   sodipodi:docname="Novo documento 1">
  <defs
     id="defs4649">
    <inkscape:path-effect
       effect="spiro"
       id="path-effect5119"
       is_visible="true" />
    <inkscape:path-effect
       effect="spiro"
       id="path-effect5116"
       is_visible="true" />
    <inkscape:path-effect
       effect="spiro"
       id="path-effect5113"
       is_visible="true" />
    <inkscape:path-effect
       effect="spiro"
       id="path-effect3441"
       is_visible="true" />
    <inkscape:path-effect
       effect="spiro"
       id="path-effect3439"
       is_visible="true" />
    <inkscape:path-effect
       effect="spiro"
       id="path-effect3437"
       is_visible="true" />
  </defs>
  <sodipodi:namedview
     id="base"
     pagecolor="#ffffff"
     bordercolor="#666666"
     borderopacity="1.0"
     inkscape:pageopacity="0.0"
     inkscape:pageshadow="2"
     inkscape:zoom="0.2083341"
     inkscape:cx="350"
     inkscape:cy="347.63322"
     inkscape:document-units="px"
     inkscape:current-layer="layer1"
     showgrid="false"
     inkscape:window-width="764"
     inkscape:window-height="581"
     inkscape:window-x="0"
     inkscape:window-y="55"
     inkscape:window-maximized="0" />
  <metadata
     id="metadata4652">
    <rdf:RDF>
      <cc:Work
         rdf:about="">
        <dc:format>image/svg+xml</dc:format>
        <dc:type
           rdf:resource="http://purl.org/dc/dcmitype/StillImage" />
        <dc:title></dc:title>
      </cc:Work>
    </rdf:RDF>
  </metadata>
  <g
     inkscape:label="Camada 1"
     inkscape:groupmode="layer"
     id="layer1"
     transform="translate(0,-452.36218)">
    <g
       id="g3419"
       transform="matrix(0.74234656,0,0,0.74234656,-3517.3978,754.79057)">
      <g
         inkscape:export-ydpi="120.01807"
         inkscape:export-xdpi="120.01807"
         inkscape:export-filename="/home/kamenezes/Área de Trabalho/Organizar/LIVRO_DIRCEU/ILUSTRACOES/PAGINA3.png"
         transform="matrix(1.6640696,0,0,1.6640696,3816.0136,1818.4189)"
         id="g3387">
        <path
           sodipodi:type="arc"
           style="fill:#d38d5f;fill-opacity:1;fill-rule:nonzero;stroke:black;stroke-width:3.18502498;stroke-linecap:round;stroke-miterlimit:4;stroke-opacity:1;stroke-dasharray:none;stroke-dashoffset:0"
           id="path3389"
           sodipodi:cx="527.09265"
           sodipodi:cy="-1184.5222"
           sodipodi:rx="26.075256"
           sodipodi:ry="25.143997"
           d="m 553.16791,-1184.5222 c 0,13.8866 -11.67429,25.144 -26.07526,25.144 -14.40097,0 -26.07525,-11.2574 -26.07525,-25.144 0,-0.3777 0.009,-0.7553 0.0265,-1.1326"
           sodipodi:start="0"
           sodipodi:end="3.1866507"
           sodipodi:open="true"
           transform="matrix(0.31237778,2.6515458,1.9102336,0.0556272,3031.7414,-2461.1611)" />
        <path
           transform="matrix(-0.31237778,2.6515458,-1.9102336,0.0556272,-1440.0336,-2459.2577)"
           sodipodi:open="true"
           sodipodi:end="3.1866507"
           sodipodi:start="0"
           d="m 553.16791,-1184.5222 c 0,13.8866 -11.67429,25.144 -26.07526,25.144 -14.40097,0 -26.07525,-11.2574 -26.07525,-25.144 0,-0.3777 0.009,-0.7553 0.0265,-1.1326"
           sodipodi:ry="25.143997"
           sodipodi:rx="26.075256"
           sodipodi:cy="-1184.5222"
           sodipodi:cx="527.09265"
           id="path3391"
           style="fill:#d38d5f;fill-opacity:1;fill-rule:nonzero;stroke:black;stroke-width:3.18502498;stroke-linecap:round;stroke-miterlimit:4;stroke-opacity:1;stroke-dasharray:none;stroke-dashoffset:0"
           sodipodi:type="arc" />
        <path
           style="fill:#d38d5f;fill-opacity:1;fill-rule:nonzero;stroke:black;stroke-width:6.12898254;stroke-linecap:round;stroke-miterlimit:4;stroke-opacity:1;stroke-dashoffset:0"
           d="m 951.92271,-1040.6583 c 0,-135.591 -28.29399,-238.7496 -158.3375,-237.1377 -135.07629,1.6742 -154.98897,101.5467 -154.98897,237.1377 0,5.2548 0.10766,10.5083 0.3228,15.7522"
           id="path3393"
           inkscape:connector-curvature="0"
           sodipodi:nodetypes="cssc" />
        <path
           sodipodi:nodetypes="sssss"
           inkscape:connector-curvature="0"
           id="path3395"
           d="m 806.20261,-902.56205 c -63.8676,0 -75.43878,7.88013 -75.43878,-25.27733 0,-33.15744 6.5457,-43.47099 70.4133,-43.47099 63.86767,0 65.38788,3.68715 65.38788,36.84459 0,33.15753 3.50527,31.90373 -60.3624,31.90373 z"
           style="fill:#d38d5f;fill-opacity:1;fill-rule:nonzero;stroke:black;stroke-width:3.65177917;stroke-linecap:round;stroke-miterlimit:4;stroke-opacity:1;stroke-dashoffset:0" />
        <path
           sodipodi:type="arc"
           style="fill:#241c1c;fill-opacity:1;fill-rule:nonzero;stroke:black;stroke-width:5;stroke-linecap:round;stroke-miterlimit:4;stroke-opacity:1;stroke-dasharray:none;stroke-dashoffset:0"
           id="path3397"
           sodipodi:cx="-787.27026"
           sodipodi:cy="-666.51129"
           sodipodi:rx="220.43568"
           sodipodi:ry="175.8237"
           d="m -566.83458,-666.51129 c 0,97.10475 -98.69242,175.8237 -220.43568,175.8237 -121.74327,0 -220.43564,-78.71895 -220.43564,-175.8237 0,-3.76328 0.1514,-7.52558 0.4542,-11.2811"
           sodipodi:start="0"
           sodipodi:end="3.2057982"
           sodipodi:open="true"
           transform="matrix(0.95174164,0,0,-0.95174164,1551.9929,-1572.827)" />
        <path
           sodipodi:type="arc"
           style="fill:black;fill-opacity:1;fill-rule:nonzero;stroke:black;stroke-width:5;stroke-linecap:round;stroke-miterlimit:4;stroke-opacity:1;stroke-dasharray:none;stroke-dashoffset:0"
           id="path3399"
           sodipodi:cx="761.02795"
           sodipodi:cy="-1151.9946"
           sodipodi:rx="20.993874"
           sodipodi:ry="31.490812"
           d="m 782.02183,-1151.9946 c 0,17.3919 -9.39928,31.4908 -20.99388,31.4908 -11.59459,0 -20.99387,-14.0989 -20.99387,-31.4908 0,-17.3919 9.39928,-31.4908 20.99387,-31.4908 11.5946,0 20.99388,14.0989 20.99388,31.4908 z"
           transform="matrix(0.95174164,0,0,0.95174164,14.26717,-63.609469)" />
        <path
           transform="matrix(0.95174164,0,0,0.95174164,128.11694,-61.098077)"
           d="m 782.02183,-1151.9946 c 0,17.3919 -9.39928,31.4908 -20.99388,31.4908 -11.59459,0 -20.99387,-14.0989 -20.99387,-31.4908 0,-17.3919 9.39928,-31.4908 20.99387,-31.4908 11.5946,0 20.99388,14.0989 20.99388,31.4908 z"
           sodipodi:ry="31.490812"
           sodipodi:rx="20.993874"
           sodipodi:cy="-1151.9946"
           sodipodi:cx="761.02795"
           id="path3401"
           style="fill:black;fill-opacity:1;fill-rule:nonzero;stroke:black;stroke-width:5;stroke-linecap:round;stroke-miterlimit:4;stroke-opacity:1;stroke-dasharray:none;stroke-dashoffset:0"
           sodipodi:type="arc" />
        <path
           sodipodi:type="arc"
           style="fill:white;fill-opacity:1;fill-rule:nonzero;stroke:black;stroke-width:5;stroke-linecap:round;stroke-miterlimit:4;stroke-opacity:1;stroke-dasharray:none;stroke-dashoffset:0"
           id="path3403"
           sodipodi:cx="761.02795"
           sodipodi:cy="-1151.9946"
           sodipodi:rx="20.993874"
           sodipodi:ry="31.490812"
           d="m 782.02183,-1151.9946 c 0,17.3919 -9.39928,31.4908 -20.99388,31.4908 -11.59459,0 -20.99387,-14.0989 -20.99387,-31.4908 0,-17.3919 9.39928,-31.4908 20.99387,-31.4908 11.5946,0 20.99388,14.0989 20.99388,31.4908 z"
           transform="matrix(0.50634327,0,0,0.50634327,465.82185,-574.96063)" />
        <path
           transform="matrix(0.50634327,0,0,0.50634327,352.80922,-576.63489)"
           d="m 782.02183,-1151.9946 c 0,17.3919 -9.39928,31.4908 -20.99388,31.4908 -11.59459,0 -20.99387,-14.0989 -20.99387,-31.4908 0,-17.3919 9.39928,-31.4908 20.99387,-31.4908 11.5946,0 20.99388,14.0989 20.99388,31.4908 z"
           sodipodi:ry="31.490812"
           sodipodi:rx="20.993874"
           sodipodi:cy="-1151.9946"
           sodipodi:cx="761.02795"
           id="path3405"
           style="fill:white;fill-opacity:1;fill-rule:nonzero;stroke:black;stroke-width:5;stroke-linecap:round;stroke-miterlimit:4;stroke-opacity:1;stroke-dasharray:none;stroke-dashoffset:0"
           sodipodi:type="arc" />
        <rect
           style="fill:#241c1c;fill-opacity:1;fill-rule:nonzero;stroke:black;stroke-width:2.71234226;stroke-linecap:round;stroke-miterlimit:4;stroke-opacity:1;stroke-dasharray:none;stroke-dashoffset:0"
           id="rect3407"
           width="85.413849"
           height="37.012672"
           x="698.92444"
           y="-1204.7461"
           transform="matrix(0.99998798,-0.00490293,0.00490293,0.99998798,0,0)" />
        <rect
           y="-1183.9468"
           x="846.79114"
           height="37.012672"
           width="85.413849"
           id="rect3409"
           style="fill:#241c1c;fill-opacity:1;fill-rule:nonzero;stroke:black;stroke-width:2.71234226;stroke-linecap:round;stroke-miterlimit:4;stroke-opacity:1;stroke-dasharray:none;stroke-dashoffset:0"
           transform="matrix(0.99951849,-0.03102871,0.03102871,0.99951849,0,0)" />
        <path
           sodipodi:type="arc"
           style="fill:#d38d5f;fill-opacity:1;fill-rule:nonzero;stroke:black;stroke-width:3.18502498;stroke-linecap:round;stroke-miterlimit:4;stroke-opacity:1;stroke-dasharray:none;stroke-dashoffset:0"
           id="path3411"
           sodipodi:cx="527.09265"
           sodipodi:cy="-1184.5222"
           sodipodi:rx="26.075256"
           sodipodi:ry="25.143997"
           d="m 553.16791,-1184.5222 c 0,13.8866 -11.67429,25.144 -26.07526,25.144 -14.40097,0 -26.07525,-11.2574 -26.07525,-25.144 0,-0.3777 0.009,-0.7553 0.0265,-1.1326"
           sodipodi:start="0"
           sodipodi:end="3.1866507"
           sodipodi:open="true"
           transform="matrix(1.9014996,0,0,3.0053577,-206.21658,2444)" />
        <path
           style="fill:none;stroke:black;stroke-width:4.758708;stroke-linecap:butt;stroke-linejoin:miter;stroke-miterlimit:4;stroke-opacity:1;stroke-dasharray:none"
           d="m 793.09865,-1270.5993 0,-45.1238"
           id="path3413"
           inkscape:path-effect="#path-effect3441"
           inkscape:original-d="m 793.09865,-1270.5993 c 0,-15.0412 0,-30.0825 0,-45.1238"
           inkscape:connector-curvature="0" />
        <path
           style="fill:none;stroke:black;stroke-width:4.758708;stroke-linecap:butt;stroke-linejoin:miter;stroke-miterlimit:4;stroke-opacity:1;stroke-dasharray:none"
           d="m 815.66063,-1268.0924 0,-32.5894"
           id="path3415"
           inkscape:path-effect="#path-effect3439"
           inkscape:original-d="m 815.66063,-1268.0924 c 0,-10.8631 0,-21.7262 0,-32.5894"
           inkscape:connector-curvature="0" />
        <path
           style="fill:none;stroke:black;stroke-width:4.758708;stroke-linecap:butt;stroke-linejoin:miter;stroke-miterlimit:4;stroke-opacity:1;stroke-dasharray:none"
           d="m 780.05409,-1258.0648 -2.50688,-37.6032"
           id="path3417"
           inkscape:path-effect="#path-effect3437"
           inkscape:original-d="m 780.05409,-1258.0648 c -0.34249,-12.2686 1.72506,-29.1394 -2.50688,-37.6032"
           inkscape:connector-curvature="0" />
      </g>
    </g>
    <g
       transform="matrix(2.3430069,0,0,2.3430069,-2928.8277,1244.9525)"
       id="g3474">
      <path
         inkscape:export-ydpi="120"
         inkscape:export-xdpi="120"
         inkscape:export-filename="/home/kamenezes/Área de Trabalho/Organizar/LIVRO_DIRCEU/ILUSTRACOES/PAGINA4.png"
         sodipodi:type="arc"
         style="fill:#d38d5f;fill-opacity:1;fill-rule:nonzero;stroke:black;stroke-width:3.18502498;stroke-linecap:round;stroke-miterlimit:4;stroke-opacity:1;stroke-dasharray:none;stroke-dashoffset:0"
         id="path3476"
         sodipodi:cx="527.09265"
         sodipodi:cy="-1184.5222"
         sodipodi:rx="26.075256"
         sodipodi:ry="25.143997"
         d="m 553.16791,-1184.5222 c 0,13.8866 -11.67429,25.144 -26.07526,25.144 -14.40097,0 -26.07525,-11.2574 -26.07525,-25.144 0,-0.3777 0.009,-0.7553 0.0265,-1.1326"
         sodipodi:start="0"
         sodipodi:end="3.1866507"
         sodipodi:open="true"
         transform="matrix(0.16826961,1.4283173,1.0289921,0.0299649,2842.3514,-951.55292)" />
      <path
         inkscape:export-ydpi="120"
         inkscape:export-xdpi="120"
         inkscape:export-filename="/home/kamenezes/Área de Trabalho/Organizar/LIVRO_DIRCEU/ILUSTRACOES/PAGINA4.png"
         transform="matrix(-0.16826961,1.4283173,-1.0289921,0.0299649,433.52503,-950.52762)"
         sodipodi:open="true"
         sodipodi:end="3.1866507"
         sodipodi:start="0"
         d="m 553.16791,-1184.5222 c 0,13.8866 -11.67429,25.144 -26.07526,25.144 -14.40097,0 -26.07525,-11.2574 -26.07525,-25.144 0,-0.3777 0.009,-0.7553 0.0265,-1.1326"
         sodipodi:ry="25.143997"
         sodipodi:rx="26.075256"
         sodipodi:cy="-1184.5222"
         sodipodi:cx="527.09265"
         id="path3478"
         style="fill:#d38d5f;fill-opacity:1;fill-rule:nonzero;stroke:black;stroke-width:3.18502498;stroke-linecap:round;stroke-miterlimit:4;stroke-opacity:1;stroke-dasharray:none;stroke-dashoffset:0"
         sodipodi:type="arc" />
      <path
         inkscape:export-ydpi="120"
         inkscape:export-xdpi="120"
         inkscape:export-filename="/home/kamenezes/Área de Trabalho/Organizar/LIVRO_DIRCEU/ILUSTRACOES/PAGINA4.png"
         style="fill:#d38d5f;fill-opacity:1;fill-rule:nonzero;stroke:black;stroke-width:3.30152035;stroke-linecap:round;stroke-miterlimit:4;stroke-opacity:1;stroke-dashoffset:0"
         d="m 1722.0083,-186.36574 c 0,-73.0393 -15.2412,-128.60807 -85.2921,-127.73982 -72.7621,0.90184 -83.4886,54.70052 -83.4886,127.73982 0,2.83055 0.058,5.6605 0.1739,8.48527"
         id="path3480"
         inkscape:connector-curvature="0"
         sodipodi:nodetypes="cssc" />
      <path
         inkscape:export-ydpi="120"
         inkscape:export-xdpi="120"
         inkscape:export-filename="/home/kamenezes/Área de Trabalho/Organizar/LIVRO_DIRCEU/ILUSTRACOES/PAGINA4.png"
         sodipodi:nodetypes="sssss"
         inkscape:connector-curvature="0"
         id="path3482"
         d="m 1644.2507,-116.934 c -34.4038,0 -39.8991,4.03668 -41.3748,-8.65919 -2.0623,-17.74162 3.526,-23.41666 37.9298,-23.41666 34.4038,0 35.2227,1.9861 35.2227,19.84717 0,17.86106 2.6261,12.22868 -31.7777,12.22868 z"
         style="fill:#d38d5f;fill-opacity:1;fill-rule:nonzero;stroke:black;stroke-width:1.96711648;stroke-linecap:round;stroke-miterlimit:4;stroke-opacity:1;stroke-dashoffset:0" />
      <path
         sodipodi:nodetypes="cssssccccc"
         inkscape:connector-curvature="0"
         id="path3484"
         d="m 1755.5473,-125.92124 c 0,-33.21217 -16.6153,-75.44243 -50.4061,-92.68132 -16.86,-8.60138 -42.7311,-2.86367 -63.5071,-2.86367 -24.0782,0 -49.0997,-5.70269 -67.434,4.53368 -29.1915,16.29816 -45.5785,55.02903 -45.5785,85.60725 0,1.92935 3.6803,8.36158 3.8356,10.28696 25.5789,-14.66168 27.6064,-19.02676 42.4978,-27.97822 64.0614,28.9078 100.4391,7.56955 135.0726,0.80329 l 0.579,-0.16624 z"
         style="fill:#241c1c;fill-opacity:1;fill-rule:nonzero;stroke:black;stroke-width:2.56338978;stroke-linecap:round;stroke-miterlimit:4;stroke-opacity:1;stroke-dashoffset:0" />
      <rect
         inkscape:export-ydpi="120"
         inkscape:export-xdpi="120"
         inkscape:export-filename="/home/kamenezes/Área de Trabalho/Organizar/LIVRO_DIRCEU/ILUSTRACOES/PAGINA4.png"
         style="fill:#241c1c;fill-opacity:1;fill-rule:nonzero;stroke:black;stroke-width:1.46106672;stroke-linecap:round;stroke-miterlimit:4;stroke-opacity:1;stroke-dasharray:none;stroke-dashoffset:0"
         id="rect3486"
         width="46.010174"
         height="19.937744"
         x="1597.3594"
         y="-163.2467"
         transform="matrix(0.99752907,-0.07025492,0.07025492,0.99752907,0,0)" />
      <rect
         inkscape:export-ydpi="120"
         inkscape:export-xdpi="120"
         inkscape:export-filename="/home/kamenezes/Área de Trabalho/Organizar/LIVRO_DIRCEU/ILUSTRACOES/PAGINA4.png"
         y="-350.30356"
         x="1632.4528"
         height="19.937744"
         width="46.010174"
         id="rect3488"
         style="fill:#241c1c;fill-opacity:1;fill-rule:nonzero;stroke:black;stroke-width:1.46106672;stroke-linecap:round;stroke-miterlimit:4;stroke-opacity:1;stroke-dasharray:none;stroke-dashoffset:0"
         transform="matrix(0.99905727,0.04341165,-0.04341165,0.99905727,0,0)" />
      <path
         inkscape:export-ydpi="120"
         inkscape:export-xdpi="120"
         inkscape:export-filename="/home/kamenezes/Área de Trabalho/Organizar/LIVRO_DIRCEU/ILUSTRACOES/PAGINA4.png"
         sodipodi:type="arc"
         style="fill:#d38d5f;fill-opacity:1;fill-rule:nonzero;stroke:black;stroke-width:3.18502498;stroke-linecap:round;stroke-miterlimit:4;stroke-opacity:1;stroke-dasharray:none;stroke-dashoffset:0"
         id="path3490"
         sodipodi:cx="527.09265"
         sodipodi:cy="-1184.5222"
         sodipodi:rx="26.075256"
         sodipodi:ry="25.143997"
         d="m 553.16791,-1184.5222 c 0,13.8866 -11.67429,25.144 -26.07526,25.144 -14.40097,0 -26.07525,-11.2574 -26.07525,-25.144 0,-0.3777 0.009,-0.7553 0.0265,-1.1326"
         sodipodi:start="0"
         sodipodi:end="3.1866507"
         sodipodi:open="true"
         transform="matrix(1.0242873,0,0,1.6189063,1098.1494,1690.7271)" />
      <path
         inkscape:export-ydpi="120"
         inkscape:export-xdpi="120"
         inkscape:export-filename="/home/kamenezes/Área de Trabalho/Organizar/LIVRO_DIRCEU/ILUSTRACOES/PAGINA4.png"
         style="fill:none;stroke:black;stroke-width:2.56338978;stroke-linecap:butt;stroke-linejoin:miter;stroke-miterlimit:4;stroke-opacity:1;stroke-dasharray:none"
         d="m 1636.4541,-310.22885 0,-24.30701"
         id="path3492"
         inkscape:path-effect="#path-effect5119"
         inkscape:original-d="m 1636.4541,-310.22885 c 0,-8.10236 0,-16.20464 0,-24.30701"
         inkscape:connector-curvature="0" />
      <path
         inkscape:export-ydpi="120"
         inkscape:export-xdpi="120"
         inkscape:export-filename="/home/kamenezes/Área de Trabalho/Organizar/LIVRO_DIRCEU/ILUSTRACOES/PAGINA4.png"
         style="fill:none;stroke:black;stroke-width:2.56338978;stroke-linecap:butt;stroke-linejoin:miter;stroke-miterlimit:4;stroke-opacity:1;stroke-dasharray:none"
         d="m 1648.6076,-308.87849 0,-17.555"
         id="path3494"
         inkscape:path-effect="#path-effect5116"
         inkscape:original-d="m 1648.6076,-308.87849 c 0,-5.85165 0,-11.70337 0,-17.555"
         inkscape:connector-curvature="0" />
      <path
         inkscape:export-ydpi="120"
         inkscape:export-xdpi="120"
         inkscape:export-filename="/home/kamenezes/Área de Trabalho/Organizar/LIVRO_DIRCEU/ILUSTRACOES/PAGINA4.png"
         style="fill:none;stroke:black;stroke-width:2.56338978;stroke-linecap:butt;stroke-linejoin:miter;stroke-miterlimit:4;stroke-opacity:1;stroke-dasharray:none"
         d="m 1629.4273,-303.47691 -1.3504,-20.25581"
         id="path3496"
         inkscape:path-effect="#path-effect5113"
         inkscape:original-d="m 1629.4273,-303.47691 c -0.1845,-6.60879 0.9292,-15.6966 -1.3504,-20.25581"
         inkscape:connector-curvature="0" />
      <path
         inkscape:export-ydpi="120"
         inkscape:export-xdpi="120"
         inkscape:export-filename="/home/kamenezes/Área de Trabalho/Organizar/LIVRO_DIRCEU/ILUSTRACOES/PAGINA4.png"
         sodipodi:nodetypes="cc"
         inkscape:connector-curvature="0"
         id="path3498"
         d="m 1594.004,-241.74778 c 5.9981,-4.5186 10.2142,-12.60115 24.4132,-0.71809"
         style="fill:none;stroke:black;stroke-width:7.39760017;stroke-linecap:butt;stroke-linejoin:miter;stroke-miterlimit:4;stroke-opacity:1;stroke-dasharray:none" />
      <path
         inkscape:export-ydpi="120"
         inkscape:export-xdpi="120"
         inkscape:export-filename="/home/kamenezes/Área de Trabalho/Organizar/LIVRO_DIRCEU/ILUSTRACOES/PAGINA4.png"
         style="fill:none;stroke:black;stroke-width:7.39760017;stroke-linecap:butt;stroke-linejoin:miter;stroke-miterlimit:4;stroke-opacity:1;stroke-dasharray:none"
         d="m 1657.5501,-242.46579 c 5.9981,-4.5186 10.2142,-12.60115 24.4132,-0.71809"
         id="path3500"
         inkscape:connector-curvature="0"
         sodipodi:nodetypes="cc" />
    </g>
  </g>
</svg>
